Coordinates
version=1
nRows=27
nColumns=38
inDegrees=no

Units are S.I. units (second, meters, Newtons, ...)
If the header above contains a line with 'inDegrees', this indicates whether rotational values are in degrees (yes) or radians (no).

endheader
time	pelvis_tilt	pelvis_list	pelvis_rotation	pelvis_tx	pelvis_ty	pelvis_tz	hip_flexion_r	hip_adduction_r	hip_rotation_r	knee_angle_r	ankle_angle_r	subtalar_angle_r	mtp_angle_r	hip_flexion_l	hip_adduction_l	hip_rotation_l	knee_angle_l	ankle_angle_l	subtalar_angle_l	mtp_angle_l	lumbar_extension	lumbar_bending	lumbar_rotation	arm_flex_r	arm_add_r	arm_rot_r	elbow_flex_r	pro_sup_r	wrist_flex_r	wrist_dev_r	arm_flex_l	arm_add_l	arm_rot_l	elbow_flex_l	pro_sup_l	wrist_flex_l	wrist_dev_l
5.03	0.124196	1.45272	1.37861	0.57871	1.8447	1.049	0.378358	-0.0375843	-0.0374188	0.547234	-0.214459	0	0	0.119514	-0.0076327	-0.256798	0.162573	-0.480733	0	0	-0.0226903	-0.17069	0.0807913	0.459657	-0.421868	0.54769	1.33197	1.5708	0	0	0.515332	-0.288869	0.683762	1.34196	1.5708	0	0
5.04	0.108097	1.45293	1.39936	0.579547	1.84689	1.04884	0.374547	-0.0397918	-0.0395531	0.541319	-0.219425	0	0	0.116319	-0.00596583	-0.254031	0.160102	-0.481004	0	0	-0.0213516	-0.171788	0.0805623	0.462913	-0.421499	0.548525	1.32598	1.5708	0	0	0.524636	-0.286734	0.69136	1.33041	1.5708	0	0
5.05	0.0901674	1.45332	1.42223	0.580418	1.84909	1.04867	0.369824	-0.0422743	-0.0415628	0.535461	-0.225609	0	0	0.112989	-0.00406586	-0.251424	0.157735	-0.481192	0	0	-0.0201438	-0.172999	0.0800638	0.466321	-0.421114	0.549456	1.31999	1.5708	0	0	0.534081	-0.284529	0.699157	1.31868	1.5708	0	0
5.06	0.0707482	1.45379	1.4467	0.581337	1.85129	1.0485	0.364634	-0.0449679	-0.0440763	0.52988	-0.234183	0	0	0.109643	-0.00203033	-0.249565	0.155668	-0.481298	0	0	-0.0190108	-0.174185	0.0795233	0.469707	-0.420574	0.55021	1.31406	1.5708	0	0	0.543595	-0.282232	0.707118	1.30673	1.5708	0	0
5.07	0.0515541	1.45465	1.47124	0.582263	1.85351	1.04833	0.358648	-0.0478028	-0.047808	0.524611	-0.242992	0	0	0.10597	9.87836e-06	-0.247923	0.153912	-0.48125	0	0	-0.0183027	-0.175127	0.078817	0.473392	-0.420315	0.551465	1.30807	1.5708	0	0	0.553213	-0.279672	0.715235	1.29442	1.5708	0	0
5.08	0.0309939	1.45558	1.49727	0.583221	1.85572	1.04813	0.351887	-0.0507078	-0.0520769	0.518651	-0.24707	0	0	0.102217	0.00218852	-0.245944	0.152368	-0.480881	0	0	-0.0176072	-0.175947	0.0780972	0.47699	-0.419987	0.5526	1.30219	1.5708	0	0	0.562741	-0.276988	0.72338	1.28189	1.5708	0	0
5.09	0.00816519	1.45659	1.52545	0.584256	1.85792	1.0479	0.344667	-0.0537125	-0.0564813	0.512349	-0.246246	0	0	0.098319	0.00447267	-0.243818	0.150854	-0.480247	0	0	-0.0168666	-0.176885	0.0775315	0.480825	-0.419866	0.554452	1.29616	1.5708	0	0	0.5722	-0.274252	0.731569	1.26911	1.5708	0	0
5.1	-0.0178389	1.45749	1.55674	0.585262	1.8601	1.04766	0.337402	-0.0573039	-0.0617116	0.505677	-0.24468	0	0	0.0947159	0.00705351	-0.241749	0.149742	-0.479702	0	0	-0.0158854	-0.177862	0.0770975	0.484658	-0.419891	0.556663	1.2902	1.5708	0	0	0.581476	-0.271185	0.739837	1.25576	1.5708	0	0
5.11	-0.0454853	1.45878	1.58974	0.586244	1.86229	1.04748	0.329532	-0.0613403	-0.0682462	0.498337	-0.244324	0	0	0.0908189	0.00973094	-0.23966	0.148851	-0.47931	0	0	-0.0153257	-0.178632	0.0767125	0.488551	-0.420032	0.559008	1.28447	1.5708	0	0	0.590702	-0.26777	0.748098	1.24181	1.5708	0	0
5.12	-0.0732884	1.46009	1.62281	0.587271	1.86449	1.04731	0.321631	-0.0653238	-0.0763228	0.490957	-0.243567	0	0	0.0869456	0.0122079	-0.237103	0.148182	-0.478916	0	0	-0.0146893	-0.179238	0.076489	0.492401	-0.419924	0.561323	1.27856	1.5708	0	0	0.599833	-0.264196	0.756356	1.22748	1.5708	0	0
5.13	-0.0995437	1.4611	1.65413	0.588353	1.86665	1.04714	0.314371	-0.068801	-0.0864851	0.484766	-0.241095	0	0	0.0832509	0.0143955	-0.23385	0.147416	-0.478517	0	0	-0.0137686	-0.179422	0.0766983	0.496107	-0.419823	0.563478	1.27248	1.5708	0	0	0.609009	-0.260371	0.764795	1.21275	1.5708	0	0
5.14	-0.123842	1.46214	1.68308	0.589468	1.86877	1.04704	0.307757	-0.071765	-0.0985929	0.479921	-0.237685	0	0	0.0793909	0.016389	-0.229969	0.146455	-0.478152	0	0	-0.0124806	-0.179071	0.0782542	0.499275	-0.42033	0.565337	1.26634	1.5708	0	0	0.619401	-0.255707	0.775482	1.19615	1.5708	0	0
5.15	-0.144405	1.46314	1.70772	0.590575	1.87084	1.04703	0.302111	-0.0741897	-0.111158	0.47676	-0.234677	0	0	0.0756968	0.0180398	-0.226421	0.14566	-0.477718	0	0	-0.0109485	-0.177854	0.0805849	0.502419	-0.421004	0.567345	1.26	1.5708	0	0	0.629755	-0.250131	0.786279	1.17848	1.5708	0	0
5.16	-0.158522	1.46415	1.72535	0.59172	1.87283	1.04714	0.297197	-0.0757524	-0.122801	0.474703	-0.232497	0	0	0.0722445	0.0189394	-0.223278	0.145049	-0.477113	0	0	-0.00927298	-0.175514	0.0837434	0.505626	-0.42202	0.569604	1.25331	1.5708	0	0	0.640458	-0.243652	0.797841	1.15958	1.5708	0	0
5.17	-0.16452	1.46523	1.73459	0.592912	1.87475	1.04735	0.292522	-0.0763317	-0.132494	0.473063	-0.231143	0	0	0.0690561	0.0188673	-0.220153	0.144675	-0.476766	0	0	-0.00756332	-0.172077	0.0872398	0.508985	-0.42313	0.572189	1.24616	1.5708	0	0	0.651352	-0.236619	0.810062	1.13982	1.5708	0	0
5.18	-0.164272	1.46638	1.73721	0.594133	1.8766	1.04765	0.287796	-0.0761085	-0.139378	0.471447	-0.230494	0	0	0.0661727	0.0179927	-0.217526	0.144635	-0.476645	0	0	-0.00594928	-0.167874	0.0908113	0.512783	-0.424044	0.575304	1.23833	1.5708	0	0	0.662315	-0.229414	0.822605	1.11966	1.5708	0	0
5.19	-0.161043	1.46756	1.73653	0.595379	1.87841	1.04798	0.283127	-0.0753971	-0.143479	0.469902	-0.230323	0	0	0.0636626	0.0166186	-0.215608	0.145195	-0.476459	0	0	-0.00438228	-0.163433	0.0942406	0.516966	-0.424602	0.578694	1.22991	1.5708	0	0	0.673107	-0.2223	0.835101	1.0995	1.5708	0	0
5.2	-0.156889	1.46864	1.73477	0.596635	1.88015	1.0483	0.278867	-0.0744069	-0.145544	0.468589	-0.230402	0	0	0.061709	0.015036	-0.21394	0.146373	-0.476222	0	0	-0.00285656	-0.159058	0.0971139	0.521729	-0.424792	0.582507	1.2212	1.5708	0	0	0.683706	-0.215527	0.847468	1.07978	1.5708	0	0
5.21	-0.155557	1.4697	1.73583	0.5979	1.88182	1.04859	0.274963	-0.0734692	-0.146729	0.467822	-0.230072	0	0	0.0601864	0.0134999	-0.212397	0.148298	-0.475782	0	0	-0.00164956	-0.155282	0.0990522	0.527372	-0.4244	0.586864	1.21212	1.5708	0	0	0.694347	-0.209576	0.859701	1.06095	1.5708	0	0
5.22	-0.157353	1.4708	1.74023	0.599148	1.88341	1.04883	0.271226	-0.0727234	-0.147874	0.467532	-0.228998	0	0	0.0590271	0.0120315	-0.211026	0.150993	-0.475132	0	0	-0.000880122	-0.152101	0.0998569	0.53408	-0.423423	0.592108	1.20245	1.5708	0	0	0.705143	-0.204603	0.872161	1.04293	1.5708	0	0
5.23	-0.161319	1.47191	1.74712	0.600374	1.88495	1.04902	0.267623	-0.0721678	-0.149511	0.467754	-0.227297	0	0	0.0582795	0.0105599	-0.209936	0.154502	-0.474356	0	0	-0.000357796	-0.149333	0.0999562	0.541025	-0.422019	0.597454	1.19255	1.5708	0	0	0.716053	-0.200214	0.885374	1.02538	1.5708	0	0
5.24	-0.165161	1.47287	1.75436	0.601581	1.88648	1.04915	0.264236	-0.0717308	-0.151889	0.46806	-0.225396	0	0	0.0578248	0.00895974	-0.20864	0.158185	-0.473518	0	0	9.71107e-05	-0.146749	0.0992045	0.548043	-0.420247	0.602995	1.18262	1.5708	0	0	0.726373	-0.196468	0.898481	1.00902	1.5708	0	0
5.25	-0.167949	1.47392	1.76086	0.602769	1.88799	1.04926	0.260641	-0.071121	-0.154561	0.468108	-0.223399	0	0	0.0572172	0.00715163	-0.207173	0.161641	-0.47254	0	0	0.000253643	-0.144282	0.0977461	0.555107	-0.418149	0.608749	1.17281	1.5708	0	0	0.736159	-0.19323	0.911136	0.993759	1.5708	0	0
5.26	-0.171113	1.4754	1.76729	0.603962	1.88946	1.04937	0.256822	-0.0703023	-0.156496	0.468455	-0.221332	0	0	0.0561191	0.00529263	-0.206676	0.165222	-0.471249	0	0	-0.000115938	-0.142016	0.0964124	0.56232	-0.415859	0.614772	1.16299	1.5708	0	0	0.745884	-0.190164	0.923625	0.978973	1.5708	0	0
5.27	-0.17309	1.47683	1.77237	0.605154	1.89087	1.04946	0.253129	-0.0692345	-0.158262	0.468752	-0.219219	0	0	0.0551437	0.00341198	-0.206805	0.168891	-0.469951	0	0	-0.000465868	-0.139805	0.0949801	0.569286	-0.41338	0.620715	1.15342	1.5708	0	0	0.755331	-0.187381	0.935997	0.96483	1.5708	0	0
5.28	-0.173903	1.47787	1.77607	0.606327	1.89226	1.04951	0.249882	-0.0680685	-0.15994	0.468827	-0.217167	0	0	0.0542659	0.00163833	-0.206762	0.171888	-0.468719	0	0	-0.000393548	-0.137621	0.0934852	0.575829	-0.410709	0.626451	1.14416	1.5708	0	0	0.763956	-0.184985	0.947729	0.951591	1.5708	0	0
5.29	-0.173842	1.47889	1.77829	0.607504	1.89362	1.04958	0.24656	-0.0666621	-0.160953	0.468358	-0.215461	0	0	0.0528628	-6.9216e-05	-0.206475	0.173687	-0.467797	0	0	-0.000337621	-0.135362	0.0922925	0.582075	-0.407875	0.631999	1.13528	1.5708	0	0	0.771782	-0.182902	0.958643	0.939171	1.5708	0	0
